<svg width="16" height="4" viewBox="0 0 16 4" fill="none" xmlns="http://www.w3.org/2000/svg">
<path d="M1.77778 3.55555C2.75961 3.55555 3.55555 2.75961 3.55555 1.77778C3.55555 0.795937 2.75961 0 1.77778 0C0.795937 0 0 0.795937 0 1.77778C0 2.75961 0.795937 3.55555 1.77778 3.55555Z" fill="#B2B2B2"/>
<path d="M7.99994 3.55555C8.98178 3.55555 9.77772 2.75961 9.77772 1.77778C9.77772 0.795937 8.98178 0 7.99994 0C7.01811 0 6.22217 0.795937 6.22217 1.77778C6.22217 2.75961 7.01811 3.55555 7.99994 3.55555Z" fill="#B2B2B2"/>
<path d="M14.2222 3.55555C15.2041 3.55555 16 2.75961 16 1.77778C16 0.795937 15.2041 0 14.2222 0C13.2404 0 12.4445 0.795937 12.4445 1.77778C12.4445 2.75961 13.2404 3.55555 14.2222 3.55555Z" fill="#B2B2B2"/>
</svg>
