<svg width="16" height="16" viewBox="0 0 16 16" fill="none" xmlns="http://www.w3.org/2000/svg">
<path d="M9.75746 -2.96041e-05C9.83272 -0.000164016 9.90727 0.0145363 9.97684 0.043231C10.0464 0.0719257 10.1097 0.114052 10.1629 0.167202L15.8328 5.83703C15.9401 5.94443 16.0005 6.09007 16.0005 6.24194C16.0005 6.3938 15.9401 6.53944 15.8328 6.64684C15.283 7.19664 14.6049 7.32035 14.1112 7.32035C13.9085 7.32035 13.7275 7.29973 13.5843 7.27568L9.99456 10.8654C10.0891 11.2462 10.1504 11.6344 10.1778 12.0257C10.2305 12.8298 10.1412 13.9581 9.35313 14.7461C9.24573 14.8535 9.10009 14.9138 8.94822 14.9138C8.79636 14.9138 8.65072 14.8535 8.54332 14.7461L5.30292 11.5069L1.6582 15.1516C1.43484 15.3749 0.261933 16.1847 0.0385758 15.9614C-0.184781 15.738 0.625031 14.564 0.848387 14.3418L4.49311 10.697L1.25387 7.45665C1.1465 7.34925 1.08618 7.20361 1.08618 7.05175C1.08618 6.89988 1.1465 6.75424 1.25387 6.64684C2.04191 5.85879 3.17015 5.7683 3.97424 5.82214C4.36558 5.84956 4.7538 5.91088 5.13455 6.00541L8.72429 2.41681C8.69433 2.24238 8.679 2.06575 8.67848 1.88877C8.67848 1.39624 8.80218 0.718149 9.35313 0.167202C9.46046 0.0601405 9.60586 2.60392e-06 9.75746 -2.96041e-05Z" fill="#686868"/>
</svg>
