<svg width="14" height="15" viewBox="0 0 14 15" fill="none" xmlns="http://www.w3.org/2000/svg">
<path fill-rule="evenodd" clip-rule="evenodd" d="M10.2307 4.16963C11.9089 5.92705 11.8448 8.71224 10.0874 10.3905C8.32994 12.0688 5.54476 12.0046 3.86647 10.2472C2.18819 8.48981 2.25235 5.70462 4.00977 4.02634C5.76719 2.34806 8.55238 2.41221 10.2307 4.16963ZM12.013 11.2486C14.0243 8.78354 13.9311 5.14868 11.6771 2.78836C9.23593 0.232112 5.18475 0.138795 2.6285 2.57993C0.0722492 5.02107 -0.0210679 9.07225 2.42007 11.6285C4.67409 13.9888 8.30079 14.2493 10.8559 12.3536L12.5476 14.1251C12.8527 14.4447 13.3591 14.4563 13.6787 14.1512C13.9982 13.846 14.0099 13.3397 13.7047 13.0201L12.013 11.2486Z" fill="#B2B2B2"/>
</svg>
